<svg width="910" height="1024" viewBox="0 0 910 1024" fill="none" xmlns="http://www.w3.org/2000/svg">
<g clip-path="url(#clip0_92_2)">
<rect width="1440" height="1024" fill="white"/>
<path d="M898.105 1067.26C942.106 937.796 718.224 795.717 677.562 650.002C637.912 507.912 752.79 375.946 667.427 240.606C578.494 99.6082 403.372 -36.1851 227.575 -63.4281C50.4986 -90.8693 -48.6257 53.9488 -196.674 106.698C-305.895 145.612 -439.652 142.751 -527.898 205.741C-622.335 273.149 -707.343 360.09 -711.494 474.173C-715.604 587.124 -626.41 701.869 -549.916 810.758C-478.522 912.389 -395.008 1007.66 -284.097 1082.58C-169.342 1160.1 -41.3327 1221.14 92.4088 1244.63C232.016 1269.16 359.358 1245.22 484.641 1217.64C636.346 1184.25 855.146 1193.66 898.105 1067.26Z" fill="#588157"/>
</g>
<defs>
<clipPath id="clip0_92_2">
<rect width="1440" height="1024" fill="white"/>
</clipPath>
</defs>
</svg>
