<svg width="682" height="421" viewBox="0 0 682 421" fill="none" xmlns="http://www.w3.org/2000/svg">
<g clip-path="url(#clip0_18_1570)">
<path d="M682 0H0V421H682V0Z" fill="#05668D"/>
<path d="M576.39 139.95C585.862 139.95 593.54 132.272 593.54 122.8C593.54 113.328 585.862 105.65 576.39 105.65C566.918 105.65 559.24 113.328 559.24 122.8C559.24 132.272 566.918 139.95 576.39 139.95Z" fill="url(#paint0_linear_18_1570)"/>
<path d="M8.82008 94.53C19.8603 94.53 28.8101 85.5802 28.8101 74.54C28.8101 63.4998 19.8603 54.55 8.82008 54.55C-2.22009 54.55 -11.1699 63.4998 -11.1699 74.54C-11.1699 85.5802 -2.22009 94.53 8.82008 94.53Z" fill="#00A896"/>
<path d="M463.87 345.49C482.714 345.49 497.99 330.214 497.99 311.37C497.99 292.526 482.714 277.25 463.87 277.25C445.026 277.25 429.75 292.526 429.75 311.37C429.75 330.214 445.026 345.49 463.87 345.49Z" fill="#00A896"/>
<path d="M147.67 216.15C165.652 216.15 180.23 201.572 180.23 183.59C180.23 165.608 165.652 151.03 147.67 151.03C129.688 151.03 115.11 165.608 115.11 183.59C115.11 201.572 129.688 216.15 147.67 216.15Z" fill="url(#paint1_linear_18_1570)"/>
<path d="M272.19 272.25C282.468 272.25 290.8 263.918 290.8 253.64C290.8 243.362 282.468 235.03 272.19 235.03C261.912 235.03 253.58 243.362 253.58 253.64C253.58 263.918 261.912 272.25 272.19 272.25Z" fill="url(#paint2_linear_18_1570)"/>
<path d="M243.78 196.445C266.554 196.445 285.015 177.983 285.015 155.21C285.015 132.437 266.554 113.975 243.78 113.975C221.007 113.975 202.545 132.437 202.545 155.21C202.545 177.983 221.007 196.445 243.78 196.445Z" fill="url(#paint3_linear_18_1570)"/>
<path d="M286.21 391.925C307.255 391.925 324.315 374.865 324.315 353.82C324.315 332.775 307.255 315.715 286.21 315.715C265.165 315.715 248.105 332.775 248.105 353.82C248.105 374.865 265.165 391.925 286.21 391.925Z" fill="#00A896"/>
<path d="M17.77 100.485C40.2618 100.485 58.495 82.2518 58.495 59.76C58.495 37.2682 40.2618 19.035 17.77 19.035C-4.72175 19.035 -22.955 37.2682 -22.955 59.76C-22.955 82.2518 -4.72175 100.485 17.77 100.485Z" fill="#00A896"/>
<path d="M119.28 332.86C127.272 332.86 133.75 326.382 133.75 318.39C133.75 310.398 127.272 303.92 119.28 303.92C111.288 303.92 104.81 310.398 104.81 318.39C104.81 326.382 111.288 332.86 119.28 332.86Z" fill="url(#paint4_linear_18_1570)"/>
<path d="M504.32 402.785C511.756 402.785 517.785 396.756 517.785 389.32C517.785 381.883 511.756 375.855 504.32 375.855C496.883 375.855 490.855 381.883 490.855 389.32C490.855 396.756 496.883 402.785 504.32 402.785Z" fill="url(#paint5_linear_18_1570)"/>
</g>
<defs>
<linearGradient id="paint0_linear_18_1570" x1="542.09" y1="122.8" x2="610.69" y2="122.8" gradientUnits="userSpaceOnUse">
<stop offset="0.1" stop-color="#028090"/>
<stop offset="0.9" stop-color="#00A896"/>
</linearGradient>
<linearGradient id="paint1_linear_18_1570" x1="82.5501" y1="183.59" x2="212.79" y2="183.59" gradientUnits="userSpaceOnUse">
<stop offset="0.1" stop-color="#028090"/>
<stop offset="0.9" stop-color="#00A896"/>
</linearGradient>
<linearGradient id="paint2_linear_18_1570" x1="234.97" y1="253.64" x2="309.41" y2="253.64" gradientUnits="userSpaceOnUse">
<stop offset="0.1" stop-color="#84B6E0"/>
<stop offset="0.9" stop-color="#464A8F"/>
</linearGradient>
<linearGradient id="paint3_linear_18_1570" x1="161.31" y1="155.21" x2="326.25" y2="155.21" gradientUnits="userSpaceOnUse">
<stop offset="0.1" stop-color="#84B6E0"/>
<stop offset="0.9" stop-color="#464A8F"/>
</linearGradient>
<linearGradient id="paint4_linear_18_1570" x1="90.3401" y1="318.39" x2="148.22" y2="318.39" gradientUnits="userSpaceOnUse">
<stop offset="0.1" stop-color="#84B6E0"/>
<stop offset="0.9" stop-color="#464A8F"/>
</linearGradient>
<linearGradient id="paint5_linear_18_1570" x1="477.39" y1="389.32" x2="531.25" y2="389.32" gradientUnits="userSpaceOnUse">
<stop offset="0.1" stop-color="#028090"/>
<stop offset="0.9" stop-color="#00A896"/>
</linearGradient>
<clipPath id="clip0_18_1570">
<rect width="682" height="421" fill="white"/>
</clipPath>
</defs>
</svg>
