<svg width="1440" height="876" viewBox="0 0 1440 876" fill="none" xmlns="http://www.w3.org/2000/svg">
<g clip-path="url(#clip0_9_595)">
<path d="M1440 0H0V1024H1440V0Z" fill="#DAD7CD"/>
<path d="M558.44 214.87H569.51V225.94H558.44V214.87Z" stroke="#588157" stroke-opacity="0.39"/>
<path d="M130.77 806.24H223.46V898.93H130.77V806.24Z" fill="#A3B18A" fill-opacity="0.22"/>
<path d="M1381.75 671.83C1381.76 671.807 1381.76 671.783 1381.76 671.759C1381.76 671.736 1381.75 671.713 1381.74 671.692C1381.72 671.672 1381.71 671.655 1381.69 671.642C1381.67 671.629 1381.64 671.62 1381.62 671.617C1381.6 671.614 1381.57 671.617 1381.55 671.624C1381.53 671.631 1381.51 671.644 1381.49 671.661C1381.47 671.677 1381.46 671.697 1381.45 671.72C1381.44 671.742 1381.44 671.766 1381.44 671.79L1381.75 671.83Z" stroke="#588157" stroke-opacity="0.39"/>
<path d="M87.15 146.8H120.84V181.53H87.15V146.8Z" stroke="#588157" stroke-opacity="0.39"/>
<path d="M555.68 387.36H591.02V422.7H555.68V387.36Z" stroke="#588157" stroke-opacity="0.39"/>
<path d="M1305.31 59.98C1305.31 70.2969 1309.41 80.1913 1316.7 87.4864C1324 94.7816 1333.89 98.88 1344.21 98.88C1354.53 98.88 1364.42 94.7816 1371.72 87.4864C1379.01 80.1913 1383.11 70.2969 1383.11 59.98C1383.11 49.6631 1379.01 39.7687 1371.72 32.4735C1364.42 25.1784 1354.53 21.08 1344.21 21.08C1333.89 21.08 1324 25.1784 1316.7 32.4735C1309.41 39.7687 1305.31 49.6631 1305.31 59.98Z" fill="#A3B18A" fill-opacity="0.22"/>
<path d="M831.7 99.13C831.7 104.715 833.919 110.072 837.868 114.022C841.818 117.971 847.175 120.19 852.76 120.19C858.345 120.19 863.702 117.971 867.652 114.022C871.601 110.072 873.82 104.715 873.82 99.13C873.82 93.5445 871.601 88.1879 867.652 84.2383C863.702 80.2888 858.345 78.07 852.76 78.07C847.175 78.07 841.818 80.2888 837.868 84.2383C833.919 88.1879 831.7 93.5445 831.7 99.13Z" fill="#A3B18A" fill-opacity="0.22"/>
<path d="M1344 724.75C1344 735.354 1346.09 745.855 1350.15 755.652C1354.2 765.449 1360.15 774.351 1367.65 781.849C1375.15 789.347 1384.05 795.295 1393.85 799.353C1403.65 803.411 1414.15 805.5 1424.75 805.5C1435.35 805.5 1445.85 803.411 1455.65 799.353C1465.45 795.295 1474.35 789.347 1481.85 781.849C1489.35 774.351 1495.3 765.449 1499.35 755.652C1503.41 745.855 1505.5 735.354 1505.5 724.75C1505.5 714.146 1503.41 703.645 1499.35 693.848C1495.3 684.051 1489.35 675.149 1481.85 667.651C1474.35 660.153 1465.45 654.205 1455.65 650.147C1445.85 646.089 1435.35 644 1424.75 644C1414.15 644 1403.65 646.089 1393.85 650.147C1384.05 654.205 1375.15 660.153 1367.65 667.651C1360.15 675.149 1354.2 684.051 1350.15 693.848C1346.09 703.645 1344 714.146 1344 724.75Z" fill="#588157" fill-opacity="0.39"/>
<path d="M286.04 297.29C283.551 292.615 280.161 288.478 276.067 285.118C271.972 281.757 267.254 279.24 262.182 277.711C257.111 276.181 251.788 275.67 246.518 276.206C241.249 276.742 236.137 278.315 231.478 280.834C226.818 283.353 222.703 286.769 219.369 290.885C216.035 295.001 213.548 299.735 212.051 304.816C210.554 309.897 210.076 315.223 210.646 320.489C211.216 325.755 212.821 330.857 215.37 335.5L286.04 297.29Z" fill="#588157" fill-opacity="0.39"/>
<path d="M695.12 486.76H754.93V586.38H695.12V486.76Z" stroke="#588157" stroke-opacity="0.39"/>
<path d="M617.43 730.83H690.21V770H617.43V730.83Z" fill="#A3B18A" fill-opacity="0.22"/>
<path d="M874.52 463.06C874.52 469.24 876.975 475.166 881.344 479.536C885.714 483.905 891.64 486.36 897.82 486.36C904 486.36 909.926 483.905 914.296 479.536C918.665 475.166 921.12 469.24 921.12 463.06C921.12 456.88 918.665 450.954 914.296 446.584C909.926 442.215 904 439.76 897.82 439.76C891.64 439.76 885.714 442.215 881.344 446.584C876.975 450.954 874.52 456.88 874.52 463.06Z" fill="#588157" fill-opacity="0.39"/>
<path d="M1424.54 539.72H1484.81V558.28H1424.54V539.72Z" stroke="#588157" stroke-opacity="0.39"/>
<path d="M1394.78 843.12C1391.5 837.288 1387.1 832.162 1381.83 828.035C1376.56 823.908 1370.53 820.862 1364.08 819.072C1357.64 817.281 1350.9 816.782 1344.26 817.601C1337.62 818.421 1331.2 820.544 1325.38 823.848C1319.56 827.153 1314.45 831.573 1310.35 836.857C1306.24 842.141 1303.22 848.183 1301.45 854.638C1299.69 861.092 1299.21 867.832 1300.06 874.47C1300.91 881.108 1303.05 887.514 1306.38 893.32L1394.78 843.12Z" stroke="#588157" stroke-opacity="0.39"/>
<path d="M1255.79 586.6H1281.99V612.8H1255.79V586.6Z" fill="#588157" fill-opacity="0.39"/>
</g>
<defs>
<clipPath id="clip0_9_595">
<rect width="1440" height="1024" fill="white"/>
</clipPath>
</defs>
</svg>
